<?xml version="1.0" encoding="UTF-8"?>
<svg xmlns="http://www.w3.org/2000/svg" xmlns:xlink="http://www.w3.org/1999/xlink" width="1376.93pt" height="427.61pt" viewBox="0 0 1376.93 427.61" version="1.1">
<defs>
<clipPath id="clip1">
  <path d="M 881 316 L 946 316 L 946 427.609375 L 881 427.609375 Z M 881 316 "/>
</clipPath>
<clipPath id="clip2">
  <path d="M 1279 68 L 1376.929688 68 L 1376.929688 274 L 1279 274 Z M 1279 68 "/>
</clipPath>
</defs>
<g id="surface1">
<path style=" stroke:none;fill-rule:nonzero;fill:rgb(0%,0%,0%);fill-opacity:1;" d="M 445.554688 323.175781 L 459.5625 323.175781 C 475.570313 323.175781 485.683594 326.898438 485.683594 344.625 C 485.683594 365.777344 469.355469 370.617188 456.605469 370.617188 C 453.167969 370.617188 448.8125 370.148438 445.554688 369.367188 Z M 432.804688 384.464844 C 432.804688 397.824219 432.164063 411.351563 431.546875 424.726563 C 434.183594 424.265625 436.703125 423.945313 439.179688 423.945313 C 441.65625 423.945313 444.136719 424.265625 446.8125 424.726563 C 446.171875 411.351563 445.554688 397.824219 445.554688 384.464844 L 445.554688 375.890625 C 449.613281 376.199219 453.46875 376.34375 458.164063 376.34375 C 473.09375 376.34375 499.972656 371.066406 499.972656 343.707031 C 499.972656 317.738281 475.230469 317.40625 465.917969 317.40625 C 461.5625 317.40625 451.609375 318.1875 446.652344 318.1875 C 441.65625 318.1875 436.542969 317.875 431.546875 317.40625 C 432.164063 330.785156 432.804688 344.316406 432.804688 357.695313 L 432.804688 384.464844 "/>
<path style=" stroke:none;fill-rule:nonzero;fill:rgb(0%,0%,0%);fill-opacity:1;" d="M 591.0625 376.738281 C 585.304688 376.910156 579.390625 377.050781 573.613281 377.050781 C 568.15625 377.050781 562.285156 376.738281 556.847656 376.738281 L 573.773438 337.253906 Z M 575.953125 316.246094 C 560.085938 352.9375 543.917969 389.183594 527.269531 425.574219 C 529.308594 425.105469 531.167969 424.792969 533.027344 424.792969 C 534.902344 424.792969 536.761719 425.105469 538.78125 425.574219 C 541.417969 415.792969 547.335938 399.933594 553.890625 383.902344 C 560.242188 383.742188 566.480469 383.578125 572.855469 383.578125 C 579.6875 383.578125 586.542969 383.742188 593.21875 383.902344 C 598.816406 397.734375 606.289063 414.851563 609.246094 425.574219 C 612.046875 425.105469 614.683594 424.792969 617.480469 424.792969 C 620.277344 424.792969 622.9375 425.105469 625.734375 425.574219 C 617.480469 408.9375 594.160156 352.308594 578.910156 316.246094 L 575.953125 316.246094 "/>
<path style=" stroke:none;fill-rule:nonzero;fill:rgb(0%,0%,0%);fill-opacity:1;" d="M 694.617188 358.554688 C 694.617188 347.34375 695.097656 336.164063 695.578125 324.789063 C 698.816406 324.480469 703.492188 324.03125 710.628906 324.03125 C 721.199219 324.03125 734.75 328.058594 734.75 344.394531 C 734.75 362.890625 717.800781 368.1875 705.050781 368.1875 C 701.015625 368.1875 697.417969 368.027344 694.617188 367.417969 Z M 681.867188 385.296875 C 681.867188 398.664063 681.269531 412.214844 680.632813 425.574219 C 683.269531 425.105469 685.765625 424.792969 688.246094 424.792969 C 690.742188 424.792969 693.242188 425.105469 695.878906 425.574219 C 695.242188 412.214844 694.617188 398.664063 694.617188 385.296875 L 694.617188 373.941406 L 700.535156 373.941406 C 713.90625 387.472656 734.589844 416.082031 740.824219 425.574219 C 743.761719 425.105469 746.859375 424.792969 749.835938 424.792969 C 752.953125 424.792969 756.089844 425.105469 759.171875 425.574219 C 750.136719 415.460938 724.175781 382.027344 716.5625 372.554688 C 728.375 370.996094 748.460938 362.890625 748.460938 342.835938 C 748.460938 324.320313 733.667969 318.257813 716.085938 318.257813 C 710.167969 318.257813 704.253906 319.035156 698.359375 319.035156 C 692.441406 319.035156 686.546875 318.726563 680.632813 318.257813 C 681.269531 331.628906 681.867188 345.164063 681.867188 358.554688 L 681.867188 385.296875 "/>
<path style=" stroke:none;fill-rule:nonzero;fill:rgb(0%,0%,0%);fill-opacity:1;" d="M 811.75 358.554688 C 811.75 345.164063 811.128906 331.628906 810.492188 318.257813 C 813.128906 318.726563 815.644531 319.035156 818.125 319.035156 C 820.640625 319.035156 823.121094 318.726563 825.757813 318.257813 C 825.117188 331.628906 824.519531 345.164063 824.519531 358.554688 L 824.519531 385.296875 C 824.519531 398.664063 825.117188 412.214844 825.757813 425.574219 C 823.121094 425.105469 820.640625 424.792969 818.125 424.792969 C 815.644531 424.792969 813.128906 425.105469 810.492188 425.574219 C 811.128906 412.214844 811.75 398.664063 811.75 385.296875 L 811.75 358.554688 "/>
<g clip-path="url(#clip1)" clip-rule="nonzero">
<path style=" stroke:none;fill-rule:nonzero;fill:rgb(0%,0%,0%);fill-opacity:1;" d="M 886.429688 404.890625 C 889.828125 412.203125 897.621094 421.078125 910.972656 421.078125 C 924.839844 421.078125 933.234375 410.953125 933.234375 398.503906 C 933.234375 369.894531 884.25 382.175781 884.25 345.644531 C 884.25 328.378906 897.300781 316.246094 918.007813 316.246094 C 927.777344 316.246094 934.773438 318.578125 940.988281 323.550781 C 939.148438 327.128906 938.050781 330.6875 936.832031 336.601563 L 934.953125 336.601563 C 932.777344 330.859375 928.117188 321.996094 916.445313 321.996094 C 904.777344 321.996094 896.363281 329.917969 896.363281 341.289063 C 896.363281 370.367188 945.382813 358.234375 945.382813 392.601563 C 945.382813 411.566406 931.214844 427.609375 907.253906 427.609375 C 894.34375 427.609375 887.03125 423.085938 881.59375 418.730469 C 883.453125 413.921875 883.910156 410.808594 884.550781 404.890625 L 886.429688 404.890625 "/>
</g>
<path style=" stroke:none;fill-rule:nonzero;fill:rgb(0%,0%,0%);fill-opacity:1;" d="M 95.324219 87.449219 L 64.628906 121.960938 C 93.519531 158.855469 123.488281 194.980469 152.363281 232.296875 L 181.625 272.402344 L 181.625 274.40625 C 174.40625 274.003906 167.902344 273.210938 161.761719 273.210938 C 154.910156 273.210938 148.035156 274.003906 141.535156 274.40625 C 133.597656 261.550781 125.660156 249.535156 116.625 237.902344 L 37.914063 135.597656 C 36.097656 134 31.78125 132.777344 31.78125 134.402344 L 31.78125 274.40625 C 25.996094 274.003906 20.953125 273.210938 15.875 273.210938 C 10.460938 273.210938 5.054688 274.003906 0 274.40625 L 0 0.00390625 C 5.054688 0.394531 10.460938 1.199219 15.875 1.199219 C 20.953125 1.199219 25.996094 0.394531 31.78125 0.00390625 L 31.78125 123.960938 C 32.128906 126.367188 37.199219 124.773438 40.808594 121.5625 C 47.308594 115.945313 54.875 107.523438 59.945313 101.902344 L 148.777344 0.00390625 C 153.464844 0.394531 158.148438 1.199219 163.21875 1.199219 C 167.546875 1.199219 172.230469 0.394531 177.296875 0.00390625 L 95.324219 87.449219 "/>
<path style=" stroke:none;fill-rule:nonzero;fill:rgb(0%,0%,0%);fill-opacity:1;" d="M 245.15625 51.152344 L 235.945313 51.152344 L 269.800781 13.546875 C 272.242188 10.820313 274.40625 8.726563 276.558594 6.011719 C 279.011719 4.199219 280.90625 1.199219 283.890625 0.597656 C 288.21875 -0.601563 293.355469 2.101563 294.722656 6.914063 C 295.519531 9.019531 296.074219 13.238281 294.457031 15.035156 C 293.089844 18.359375 290.117188 19.863281 287.6875 21.660156 Z M 235.679688 157.960938 L 277.65625 157.960938 C 285.789063 157.960938 293.621094 156.753906 301.757813 156.460938 C 301.480469 158.855469 300.945313 161.582031 300.945313 164.273438 C 300.945313 166.691406 301.480469 169.402344 301.757813 172.707031 C 293.621094 172.398438 285.789063 171.199219 277.65625 171.199219 L 235.679688 171.199219 L 235.679688 259.066406 C 252.191406 259.660156 268.445313 258.464844 284.691406 257.855469 C 293.089844 257.5625 301.222656 256.660156 309.601563 255.15625 C 309.335938 258.464844 308.804688 261.175781 308.804688 264.183594 C 308.804688 267.167969 309.335938 270.199219 309.601563 273.199219 L 211.835938 273.199219 L 211.835938 68.292969 L 307.980469 68.292969 C 307.726563 71.613281 307.195313 74.316406 307.195313 77.324219 C 307.195313 80.332031 307.726563 83.351563 307.980469 86.347656 C 299.882813 84.539063 291.734375 83.636719 283.605469 83.046875 L 256.527344 82.445313 L 235.679688 82.445313 L 235.679688 157.960938 "/>
<path style=" stroke:none;fill-rule:nonzero;fill:rgb(0%,0%,0%);fill-opacity:1;" d="M 347.527344 68.296875 L 404.9375 68.296875 C 446.65625 68.296875 465.078125 83.640625 465.078125 114.027344 C 465.078125 148.9375 436.882813 165.78125 409.554688 171.207031 L 465.367188 249.730469 L 478.359375 266.589844 L 483.496094 274.09375 C 477.828125 273.800781 472.945313 273.203125 467.796875 273.203125 C 462.648438 273.203125 457.234375 273.800781 452.351563 274.09375 C 446.402344 264.78125 440.964844 256.359375 435.273438 247.921875 L 403.304688 201.894531 L 381.65625 173.605469 L 371.359375 173.605469 L 371.359375 274.09375 C 367.035156 273.800781 363.25 273.203125 359.445313 273.203125 C 355.371094 273.203125 351.320313 273.800781 347.527344 274.09375 Z M 371.359375 162.164063 C 375.132813 162.492188 392.488281 163.671875 406.300781 160.664063 C 426.0625 156.164063 440.964844 141.125 440.964844 117.644531 C 440.964844 96.890625 431.480469 83.347656 411.171875 79.730469 C 401.152344 77.929688 382.746094 78.835938 371.359375 79.425781 L 371.359375 162.164063 "/>
<path style=" stroke:none;fill-rule:nonzero;fill:rgb(0%,0%,0%);fill-opacity:1;" d="M 664.914063 274.09375 C 659.765625 273.800781 655.449219 273.210938 650.847656 273.210938 C 645.6875 273.210938 641.105469 273.800781 636.488281 274.09375 C 628.644531 249.132813 618.890625 220.234375 608.058594 192.867188 L 539.253906 192.867188 C 529.765625 219.363281 520.011719 245.816406 512.421875 274.09375 C 508.636719 273.800781 505.675781 273.210938 502.425781 273.210938 C 498.90625 273.210938 495.910156 273.800781 492.925781 274.09375 L 577.445313 63.777344 L 583.683594 63.777344 Z M 573.929688 103.207031 L 544.402344 180.226563 L 603.996094 180.226563 Z M 573.929688 103.207031 "/>
<path style=" stroke:none;fill-rule:nonzero;fill:rgb(0%,0%,0%);fill-opacity:1;" d="M 689.304688 233.484375 C 699.878906 252.753906 712.050781 264.773438 733.175781 264.773438 C 755.113281 264.773438 770.8125 244.625 770.8125 220.84375 C 770.8125 164.878906 686.039063 189.570313 686.039063 121.5625 C 686.039063 82.75 713.671875 63.78125 746.179688 63.78125 C 759.164063 63.78125 774.875 68.292969 784.894531 78.222656 C 781.65625 86.054688 779.757813 94.476563 777.59375 102.898438 L 774.875 102.898438 C 769.195313 86.648438 757.277344 76.726563 741.296875 76.726563 C 722.625 76.726563 707.167969 90.554688 707.167969 111.929688 C 707.167969 167.28125 792.507813 145.019531 792.507813 209.117188 C 792.507813 252.136719 762.414063 277.714844 725.609375 277.714844 C 712.304688 277.714844 690.667969 271.386719 681.4375 260.261719 C 684.144531 251.566406 685.507813 242.503906 686.574219 233.484375 L 689.304688 233.484375 "/>
<path style=" stroke:none;fill-rule:nonzero;fill:rgb(0%,0%,0%);fill-opacity:1;" d="M 893.222656 274.699219 C 888.898438 274.40625 885.113281 273.804688 881.34375 273.804688 C 877.246094 273.804688 873.195313 274.40625 869.402344 274.699219 L 869.402344 82.75 C 842.039063 82.75 825.527344 84.550781 810.09375 86.347656 C 810.382813 83.351563 810.902344 80.332031 810.902344 77.324219 C 810.902344 74.308594 810.382813 71.609375 810.09375 68.292969 L 949.859375 68.292969 C 949.582031 71.609375 949.039063 74.308594 949.039063 77.324219 C 949.039063 80.332031 949.582031 83.351563 949.859375 86.347656 C 936.308594 84.550781 917.371094 82.75 893.222656 82.75 L 893.222656 274.699219 "/>
<path style=" stroke:none;fill-rule:nonzero;fill:rgb(0%,0%,0%);fill-opacity:1;" d="M 1115.308594 274.09375 C 1110.171875 273.800781 1105.820313 273.210938 1101.238281 273.210938 C 1096.078125 273.210938 1091.480469 273.800781 1086.851563 274.09375 C 1079.019531 249.132813 1069.28125 220.234375 1058.449219 192.867188 L 989.636719 192.867188 C 980.160156 219.363281 970.382813 245.816406 962.816406 274.09375 C 959.035156 273.800781 956.050781 273.210938 952.796875 273.210938 C 949.28125 273.210938 946.316406 273.800781 943.320313 274.09375 L 1027.820313 63.777344 L 1034.070313 63.777344 Z M 1024.320313 103.207031 L 994.773438 180.226563 L 1054.359375 180.226563 Z M 1024.320313 103.207031 "/>
<path style=" stroke:none;fill-rule:nonzero;fill:rgb(0%,0%,0%);fill-opacity:1;" d="M 1139.679688 233.484375 C 1150.238281 252.753906 1162.421875 264.773438 1183.550781 264.773438 C 1205.511719 264.773438 1221.210938 244.625 1221.210938 220.84375 C 1221.210938 164.878906 1136.441406 189.570313 1136.441406 121.5625 C 1136.441406 82.75 1164.050781 63.78125 1196.578125 63.78125 C 1209.558594 63.78125 1225.269531 68.292969 1235.308594 78.222656 C 1232.050781 86.054688 1230.148438 94.476563 1227.980469 102.898438 L 1225.269531 102.898438 C 1219.578125 86.648438 1207.660156 76.726563 1191.679688 76.726563 C 1173 76.726563 1157.53125 90.554688 1157.53125 111.929688 C 1157.53125 167.28125 1242.878906 145.019531 1242.878906 209.117188 C 1242.878906 252.136719 1212.808594 277.714844 1175.980469 277.714844 C 1162.71875 277.714844 1141.039063 271.386719 1131.839844 260.261719 C 1134.558594 251.566406 1135.890625 242.503906 1136.988281 233.484375 L 1139.679688 233.484375 "/>
<g clip-path="url(#clip2)" clip-rule="nonzero">
<path style=" stroke:none;fill-rule:nonzero;fill:rgb(0%,0%,0%);fill-opacity:1;" d="M 1303.011719 157.960938 L 1344.988281 157.960938 C 1353.121094 157.960938 1360.960938 156.753906 1369.089844 156.457031 C 1368.808594 158.863281 1368.269531 161.574219 1368.269531 164.277344 C 1368.269531 166.695313 1368.808594 169.390625 1369.089844 172.710938 C 1360.960938 172.40625 1353.121094 171.207031 1344.988281 171.207031 L 1303.011719 171.207031 L 1303.011719 259.058594 C 1319.511719 259.660156 1335.769531 258.464844 1352.03125 257.863281 C 1360.441406 257.554688 1368.550781 256.664063 1376.929688 255.148438 C 1376.691406 258.464844 1376.140625 261.175781 1376.140625 264.183594 C 1376.140625 267.175781 1376.691406 270.207031 1376.929688 273.203125 L 1279.191406 273.203125 L 1279.191406 68.296875 L 1375.308594 68.296875 C 1375.058594 71.613281 1374.519531 74.316406 1374.519531 77.3125 C 1374.519531 80.335938 1375.058594 83.347656 1375.308594 86.355469 C 1367.210938 84.542969 1359.089844 83.640625 1350.929688 83.050781 L 1323.878906 82.445313 L 1303.011719 82.445313 L 1303.011719 157.960938 "/>
</g>
</g>
</svg>
